<svg xmlns="http://www.w3.org/2000/svg" xmlns:xlink="http://www.w3.org/1999/xlink" width="20" height="20" version="1.1" viewBox="0 0 20 20"><title>UI-icons-yellow</title><desc>Created with Sketch.</desc><g id="Page-1" fill="none" fill-rule="evenodd" stroke="none" stroke-width="1"><g id="UI-icons-yellow" transform="translate(0.000000, -2.000000)"><path id="Combined-Shape" fill="#C93" d="M19.8857582,10.4835307 C19.9609891,10.9780483 20,11.4844684 20,12 C20,17.5228475 15.5228475,22 10,22 C4.4771525,22 0,17.5228475 0,12 C0,6.4771525 4.4771525,2 10,2 C10.5155316,2 11.0219517,2.03901093 11.5164693,2.11424183 C9.99308495,3.20235678 9,4.98520468 9,7 C9,10.3137085 11.6862915,13 15,13 C17.0147953,13 18.7976432,12.0069151 19.8857582,10.4835307 Z"/><circle id="Oval-5" cx="3.5" cy="10.5" r="1.5" fill="#100C04"/><circle id="Oval-5-Copy" cx="13.5" cy="18.5" r="1.5" fill="#100C04"/><circle id="Oval-5-Copy-2" cx="9.5" cy="13.5" r="1.5" fill="#100C04"/><circle id="Oval-5-Copy-3" cx="5.5" cy="16.5" r="1.5" fill="#100C04"/><polygon id="Combined-Shape" fill="#EC1C23" points="14.364 5.364 10.864 5.364 10.864 7.364 14.364 7.364 14.364 10.864 16.364 10.864 16.364 7.364 19.864 7.364 19.864 5.364 16.364 5.364 16.364 1.864 14.364 1.864" transform="translate(15.363961, 6.363961) rotate(-315.000000) translate(-15.363961, -6.363961)"/></g></g></svg>